<svg xmlns="http://www.w3.org/2000/svg" width="71" height="70" viewBox="0 0 71 70" fill="none"><g clip-path="url(#clip0_11_13)"><path d="M0.290342 42.9195C0.290342 40.2507 7.05721 37.9119 17.1873 36.62C16.0617 38.5992 15.521 41.0875 15.521 43.4641C15.521 44.0339 15.5808 44.5882 15.6806 45.1294C11.4494 46.1654 9.39059 47.3182 8.76843 47.7175C3.48796 46.4294 0.290342 44.7524 0.290342 42.9195ZM53.3443 36.59C54.4557 38.5567 54.9988 41.0352 54.9988 43.4658C54.9988 44.061 54.9361 44.6414 54.828 45.2072C59.1117 46.1731 61.5495 47.2164 62.3987 47.6238C67.4493 46.3477 70.4906 44.7093 70.4906 42.9205C70.4914 40.2288 63.6123 37.875 53.3443 36.59ZM35.0398 50.0232C34.9247 50.0666 34.7962 50.1147 34.6576 50.1661C32.3787 51.021 28.1362 52.6154 24.8511 52.6154C20.8948 52.6154 17.5079 50.1849 16.1202 46.7569C13.959 47.2867 12.3951 47.8402 11.3507 48.2876C12.3149 48.478 13.3271 48.6568 14.3887 48.8233C15.7689 49.0397 17.7016 49.9655 18.7009 50.9313L21.1105 53.2638C22.1087 54.2296 24.0511 55.0133 25.4492 55.0133H45.6867C47.0844 55.0133 49.0334 54.236 50.0389 53.2776L52.5874 50.8488C53.5945 49.8894 55.5329 48.9663 56.9124 48.7409C57.8157 48.5939 58.6775 48.4357 59.5063 48.2714C58.2606 47.8355 56.5037 47.3105 54.2261 46.8043C52.8269 50.2071 49.4504 52.6164 45.5116 52.6164C41.4591 52.6154 39.0881 52.0472 35.0398 50.0232ZM29.3812 18.847C32.9829 16.9888 33.7482 11.3988 31.0909 6.36073C28.4339 1.32268 23.3597 -1.2547 19.7579 0.603376C16.1562 2.46113 15.3909 8.05144 18.0483 13.0896C20.7057 18.1272 25.7799 20.7051 29.3812 18.847ZM17.9035 32.1552C21.5044 30.2969 22.2685 24.7061 19.6103 19.6678C16.9521 14.6294 11.8778 12.051 8.27698 13.9093C4.67603 15.7675 3.91145 21.3583 6.56982 26.3972C9.22835 31.435 14.3024 34.0134 17.9035 32.1552ZM39.8519 18.8484C43.4537 20.7062 48.5282 18.1283 51.1857 13.0908C53.8423 8.05273 53.0771 2.46242 49.4759 0.604662C45.8742 -1.25358 40.8005 1.32429 38.1421 6.36234C35.4852 11.3999 36.2508 16.9904 39.8519 18.8484ZM49.6229 19.669C46.9645 24.7076 47.7298 30.2979 51.3309 32.1556C54.932 34.0134 60.0055 31.4352 62.6629 26.3967C65.3213 21.3583 64.5561 15.7675 60.9549 13.9098C57.354 12.0518 52.2803 14.6305 49.6229 19.669ZM22.9235 32.6108C22.9235 33.2917 22.9949 33.9539 23.1134 34.6001C19.1335 34.8005 17.3945 39.4466 17.3945 43.4324C17.3945 47.5471 20.7672 50.883 24.9283 50.883C28.6924 50.883 34.3926 48.3479 35.2599 48.1333C39.728 50.4396 41.8629 50.883 45.5911 50.883C49.7518 50.883 53.1249 47.5471 53.1249 43.4324C53.1249 39.5936 51.6125 35.0494 47.8398 34.6446C47.9645 33.9848 48.0372 33.3065 48.0372 32.611C48.0372 26.5364 41.622 20.1925 35.48 20.1925C29.3369 20.1924 22.9235 26.5362 22.9235 32.6108ZM56.3395 50.7163C62.4452 49.7203 66.6553 48.4116 68.9429 46.808L64.2316 64.3716C64.2316 64.3716 58.7518 69.9998 35.983 69.9998C13.2148 69.9998 4.99206 64.1626 4.99369 64.161L0.29148 46.814C2.64584 48.4614 7.02616 49.7954 13.4108 50.7988C14.555 50.9784 16.2478 51.803 17.0362 52.5655L19.4471 54.8981C20.6886 56.0991 22.9338 57.0044 24.6702 57.0044H44.9072C46.6399 57.0044 48.8887 56.1081 50.1353 54.9193L52.6861 52.4905C53.483 51.7327 55.1887 50.9025 56.3395 50.7163ZM39.5482 62.4108C38.5269 62.4108 37.6981 62.4108 37.6981 62.4108L37.1285 60.6725C36.8139 59.7123 36.3004 59.7123 35.9868 60.6725C35.6699 61.6334 35.4147 62.4108 35.4147 62.4108H33.5672C32.5464 62.4108 32.3891 62.8923 33.2148 63.4867C34.0432 64.0801 34.7102 64.5603 34.7102 64.5603L34.1406 66.2985C33.8255 67.2594 34.2404 67.5573 35.0653 66.9631C35.8882 66.3689 36.559 65.8886 36.559 65.8886L38.0532 66.9631C38.8778 67.5565 39.2923 67.2594 38.9779 66.2985C38.6617 65.3383 38.4057 64.5603 38.4057 64.5603L39.9023 63.4867C40.7262 62.8923 40.5693 62.4108 39.5482 62.4108Z" fill="#273769"></path></g><defs><clipPath id="clip0_11_13"><rect width="70.7821" height="70" fill="white"></rect></clipPath></defs></svg>