<svg width="122" height="120" viewBox="0 0 122 120" fill="none" xmlns="http://www.w3.org/2000/svg">
<g clip-path="url(#clip0_53_216)">
<path fill-rule="evenodd" clip-rule="evenodd" d="M60.7856 74.4087C70.051 66.2449 82.6447 59.0992 88.8216 48.1277C93.7811 39.3251 88.1319 24.823 77.8531 26.028C78.7166 22.7443 80 16.2976 76.9415 10.6702C72.4138 2.3497 63.904 -0.488076 55.5562 0.0662241C34.1769 1.4821 25.6372 26.0942 33.2954 43.8078C39.0045 57.0085 52.06 66.2087 60.7856 74.4087ZM74.5667 13.8514C76.2399 15.1167 75.988 20.2741 74.1649 22.9552C73.3613 24.1361 72.3238 24.7326 71.8621 26.2388C71.4183 27.6788 71.5322 30.2394 71.6942 31.5288C71.7841 32.2337 71.994 32.7338 71.3103 32.8121C70.6267 32.8965 69.6672 32.7458 69.5772 32.776C68.8995 33.0049 68.8456 33.499 68.5457 34.222C68.3598 34.6738 68.4138 34.704 68.4498 35.0775C68.4498 35.0896 68.4018 35.2161 68.2579 35.2703C68.012 35.3607 67.5922 35.4149 67.5082 35.5414C67.2204 35.9692 67.3943 36.5054 67.0885 36.632C66.3448 36.9332 65.7211 36.7043 65.1754 37.6562C64.6897 38.5901 64.6537 42.1569 59.1964 38.0358C58.3328 37.3851 57.6972 36.7585 56.7496 36.2524C50.6567 33.9689 50.3688 51.9234 62.7226 51.4294C65.3553 51.327 67.2444 50.0617 64.9895 48.5796C64.1259 48.0132 64.066 46.9106 64.7616 46.2117C65.3193 45.6514 65.0915 45.4225 65.0675 45.0128C65.0555 44.838 64.9475 44.6874 65.0855 44.5488C65.1154 44.5187 65.1694 44.5006 65.1874 44.4524C65.1994 44.4163 65.1634 44.3681 65.1454 44.3319C65.0855 44.1572 64.9295 43.7776 65.0375 43.6812C65.1814 43.5607 66.1169 42.7835 66.1289 42.7112C66.1649 42.4823 65.955 42.1991 65.931 41.9099C65.8951 41.3676 66.093 40.9459 66.5727 41.0543C67.3703 41.2351 68.1259 41.3435 68.8396 40.5362C69.919 39.3191 69.6672 38.9094 70.8906 37.8309C72.3178 36.5717 74.4768 36.391 76.2099 36.8368C80.4378 37.6803 84.8336 41.4881 84.6297 45.3863C84.4558 49.3026 81.8231 52.6344 78.6447 53.2369C77.1574 53.5201 71.6102 53.4417 71.3343 55.2854C67.4603 81.0242 17.0855 50.3268 74.5667 13.8454V13.8514Z" fill="#00B2AB"/>
<path d="M9.6072 90.5498H3.34633V83.5608H0V99.7198H3.34633V93.4779H9.6072V99.7198H12.9535V83.5608H9.6072V90.5498Z" fill="#1E1E1E"/>
<path d="M22.7526 98.5811V99.7258H25.7751V91.9174C25.7751 91.0619 25.5652 90.3148 25.1394 89.6701C24.7136 89.0254 24.1199 88.5253 23.3583 88.1638C22.5967 87.8023 21.7151 87.6216 20.7256 87.6216C19.8921 87.6216 19.1184 87.7541 18.4168 88.0132C17.7091 88.2723 17.1094 88.6398 16.6057 89.1218C16.1019 89.5978 15.7361 90.1702 15.5022 90.8329L18.093 92.068C18.2969 91.5499 18.6147 91.1281 19.0525 90.8088C19.4903 90.4895 20 90.3328 20.5757 90.3328C21.1814 90.3328 21.6612 90.4835 22.009 90.7907C22.3628 91.092 22.5367 91.4716 22.5367 91.9174V92.2307L19.2744 92.7609C18.3388 92.9055 17.5592 93.1525 16.9295 93.496C16.2998 93.8394 15.8381 94.2732 15.5382 94.7853C15.2384 95.2974 15.0825 95.8879 15.0825 96.5506C15.0825 97.2616 15.2504 97.8701 15.5802 98.3822C15.91 98.8944 16.3838 99.292 17.0075 99.5631C17.6252 99.8403 18.3628 99.9728 19.2084 99.9728C19.8441 99.9728 20.4198 99.8885 20.9355 99.7258C21.4513 99.5571 21.919 99.3041 22.3388 98.9667C22.4828 98.8522 22.6147 98.7076 22.7466 98.569L22.7526 98.5811ZM21.2654 97.2495C20.8636 97.4785 20.3958 97.599 19.8621 97.599C19.4603 97.599 19.1184 97.4966 18.8486 97.2977C18.5727 97.0929 18.4408 96.8157 18.4408 96.4542C18.4408 96.0626 18.5607 95.7614 18.8066 95.5565C19.0525 95.3456 19.4063 95.201 19.8621 95.1107L22.5367 94.6287V95.0022C22.5367 95.4782 22.4228 95.918 22.2009 96.3157C21.979 96.7133 21.6672 97.0266 21.2594 97.2616L21.2654 97.2495Z" fill="#1E1E1E"/>
<path d="M39.994 96.9242C40.5217 95.9843 40.7796 94.942 40.7796 93.8032C40.7796 92.6645 40.5157 91.6041 39.982 90.6702C39.4483 89.7364 38.7286 88.9953 37.8231 88.447C36.9175 87.8987 35.904 87.6216 34.7766 87.6216C33.913 87.6216 33.1454 87.7843 32.4797 88.1096C31.958 88.3627 31.5262 88.7001 31.1724 89.1158V87.8807H28.1499V104.064H31.3883V98.798C31.7121 99.0992 32.0899 99.3523 32.5217 99.539C33.2054 99.8343 33.949 99.9849 34.7586 99.9849C35.91 99.9849 36.9415 99.7077 37.8471 99.1595C38.7526 98.6112 39.4722 97.8641 39.994 96.9242ZM37.0495 95.4902C36.7916 95.9843 36.4318 96.3639 35.97 96.641C35.5082 96.9182 34.9745 97.0507 34.3748 97.0507C33.7751 97.0507 33.2833 96.9121 32.8336 96.641C32.3778 96.3639 32.03 95.9843 31.7781 95.4902C31.5262 94.9962 31.4003 94.4359 31.4003 93.7972C31.4003 93.1586 31.5262 92.5982 31.7781 92.1042C32.03 91.6101 32.3838 91.2306 32.8336 90.9534C33.2833 90.6763 33.7991 90.5437 34.3748 90.5437C34.9505 90.5437 35.5142 90.6823 35.97 90.9655C36.4318 91.2486 36.7916 91.6282 37.0495 92.1162C37.3073 92.5982 37.4393 93.1586 37.4393 93.7972C37.4393 94.4359 37.3073 94.9962 37.0495 95.4902Z" fill="#1E1E1E"/>
<path d="M54.5247 96.9242C55.0525 95.9843 55.3104 94.942 55.3104 93.8032C55.3104 92.6645 55.0465 91.6041 54.5127 90.6702C53.979 89.7364 53.2594 88.9953 52.3538 88.447C51.4483 87.8987 50.4348 87.6216 49.3074 87.6216C48.4438 87.6216 47.6762 87.7843 47.0105 88.1096C46.4888 88.3627 46.057 88.7001 45.7032 89.1158V87.8807H42.6807V104.064H45.919V98.798C46.2429 99.0992 46.6207 99.3523 47.0525 99.539C47.7361 99.8343 48.4798 99.9849 49.2894 99.9849C50.4408 99.9849 51.4723 99.7077 52.3778 99.1595C53.2834 98.6112 54.003 97.8641 54.5247 96.9242ZM51.5742 95.4902C51.3163 95.9843 50.9565 96.3639 50.4948 96.641C50.033 96.9182 49.4993 97.0507 48.8996 97.0507C48.2999 97.0507 47.8081 96.9121 47.3583 96.641C46.9026 96.3639 46.5547 95.9843 46.3029 95.4902C46.051 94.9962 45.925 94.4359 45.925 93.7972C45.925 93.1586 46.051 92.5982 46.3029 92.1042C46.5547 91.6101 46.9086 91.2306 47.3583 90.9534C47.8081 90.6763 48.3238 90.5437 48.8996 90.5437C49.5053 90.5437 50.039 90.6823 50.4948 90.9655C50.9565 91.2486 51.3163 91.6282 51.5742 92.1162C51.8321 92.5982 51.964 93.1586 51.964 93.7972C51.964 94.4359 51.8321 94.9962 51.5742 95.4902Z" fill="#1E1E1E"/>
<path d="M62.3088 95.4963L59.5262 87.8746H56.048L60.6897 99.7138L60.4738 100.22C60.2998 100.593 60.078 100.931 59.8021 101.226C59.5262 101.521 59.0765 101.672 58.4408 101.672C58.2129 101.672 57.961 101.648 57.6852 101.606C57.4093 101.563 57.1754 101.509 56.9715 101.455V104.124C57.2174 104.257 57.4992 104.347 57.8231 104.407C58.1469 104.467 58.4828 104.492 58.8246 104.492C59.5442 104.492 60.1979 104.359 60.7796 104.088C61.3613 103.823 61.8831 103.413 62.3448 102.865C62.8066 102.317 63.1964 101.636 63.5082 100.828L68.5577 87.8807H65.0855L62.2968 95.5023L62.3088 95.4963Z" fill="#1E1E1E"/>
<path d="M87.0704 99.7198V83.5608H83.832L78.7226 90.5679L73.4692 83.5608H70.2308V99.7198H73.5772V89.0797L78.4347 95.5987H78.8665L83.7241 89.3086V99.7198H87.0704Z" fill="#1E1E1E"/>
<path d="M98.7047 88.4229C97.7572 87.8867 96.6957 87.6216 95.5323 87.6216C94.3689 87.6216 93.3074 87.8867 92.3479 88.4229C91.3884 88.9591 90.6267 89.6882 90.057 90.616C89.4873 91.5439 89.2054 92.6043 89.2054 93.8032C89.2054 95.0022 89.4873 96.0506 90.057 96.9784C90.6267 97.9123 91.3884 98.6473 92.3479 99.1775C93.3074 99.7138 94.3689 99.9789 95.5323 99.9789C96.6957 99.9789 97.7572 99.7138 98.7047 99.1775C99.6522 98.6413 100.414 97.9063 100.984 96.9784C101.553 96.0445 101.835 94.9841 101.835 93.8032C101.835 92.6223 101.553 91.5378 100.984 90.616C100.414 89.6882 99.6582 88.9591 98.7047 88.4229ZM98.111 95.4902C97.8591 95.9843 97.5113 96.3639 97.0735 96.641C96.6357 96.9182 96.12 97.0507 95.5323 97.0507C94.9446 97.0507 94.4228 96.9121 93.9791 96.641C93.5353 96.3639 93.1815 95.9843 92.9296 95.4902C92.6777 94.9962 92.5518 94.4359 92.5518 93.7972C92.5518 93.1586 92.6777 92.5982 92.9296 92.1162C93.1815 91.6342 93.5293 91.2486 93.9791 90.9655C94.4288 90.6823 94.9446 90.5437 95.5323 90.5437C96.12 90.5437 96.6357 90.6823 97.0735 90.9655C97.5113 91.2486 97.8591 91.6282 98.111 92.1162C98.3629 92.5982 98.4888 93.1586 98.4888 93.7972C98.4888 94.4359 98.3629 94.9962 98.111 95.4902Z" fill="#1E1E1E"/>
<path d="M121.091 89.7545C120.72 89.0797 120.204 88.5555 119.55 88.182C118.897 87.8084 118.141 87.6156 117.295 87.6156C116.33 87.6156 115.49 87.8446 114.771 88.3085C114.339 88.5856 113.973 88.9712 113.655 89.4352C113.409 89.0194 113.079 88.6579 112.642 88.3627C111.898 87.8626 111.04 87.6156 110.063 87.6156C109.139 87.6156 108.348 87.8325 107.688 88.2663C107.28 88.5314 106.98 88.8989 106.759 89.3388V87.8747H103.736V99.7198H106.974V92.8031C106.974 92.3392 107.058 91.9416 107.22 91.6102C107.388 91.2788 107.622 91.0197 107.934 90.8269C108.246 90.6402 108.606 90.5438 109.025 90.5438C109.445 90.5438 109.823 90.6402 110.129 90.8269C110.429 91.0137 110.663 91.2728 110.831 91.6102C110.998 91.9416 111.076 92.3392 111.076 92.8031V99.7198H114.315V92.8031C114.315 92.3392 114.399 91.9416 114.561 91.6102C114.729 91.2788 114.962 91.0197 115.274 90.8269C115.586 90.6402 115.946 90.5438 116.366 90.5438C116.786 90.5438 117.163 90.6402 117.469 90.8269C117.769 91.0137 118.003 91.2728 118.171 91.6102C118.339 91.9416 118.417 92.3392 118.417 92.8031V99.7198H121.655V92.1042C121.655 91.2065 121.469 90.4233 121.091 89.7485V89.7545Z" fill="#1E1E1E"/>
<path d="M27.1784 113.794C27.0465 113.668 26.8845 113.559 26.7046 113.463C26.9205 113.312 27.1004 113.137 27.2324 112.927C27.4363 112.607 27.5382 112.246 27.5382 111.848C27.5382 111.414 27.4423 111.041 27.2504 110.727C27.0585 110.414 26.7886 110.167 26.4408 109.998C26.0929 109.83 25.6731 109.739 25.1934 109.739H21.8171V117.819H25.2054C26.027 117.819 26.6746 117.608 27.1484 117.18C27.6222 116.752 27.8621 116.168 27.8621 115.421C27.8621 115.108 27.8021 114.818 27.6881 114.535C27.5742 114.258 27.4003 114.011 27.1724 113.8L27.1784 113.794ZM22.8785 110.697H25.1754C25.5652 110.697 25.877 110.794 26.1169 110.993C26.3568 111.185 26.4708 111.469 26.4708 111.836C26.4708 112.204 26.3508 112.481 26.1169 112.71C25.877 112.939 25.5652 113.053 25.1754 113.053H22.8785V110.697ZM26.3748 116.457C26.0929 116.71 25.7211 116.837 25.2534 116.837H22.8785V114.005H25.2534C25.7211 114.005 26.0929 114.132 26.3748 114.391C26.6567 114.65 26.7946 114.993 26.7946 115.427C26.7946 115.861 26.6567 116.204 26.3748 116.457Z" fill="#495057"/>
<path d="M33.7631 112.698C33.5292 112.433 33.2474 112.222 32.9116 112.071C32.5757 111.915 32.1919 111.836 31.7601 111.836C31.2264 111.836 30.7466 111.969 30.3209 112.234C29.8951 112.499 29.5532 112.86 29.3074 113.312C29.0615 113.764 28.9355 114.288 28.9355 114.873C28.9355 115.457 29.0615 115.975 29.3134 116.439C29.5652 116.903 29.9131 117.271 30.3508 117.542C30.7886 117.807 31.2924 117.946 31.8501 117.946C32.2519 117.946 32.6177 117.879 32.9475 117.753C33.2774 117.62 33.5592 117.445 33.7991 117.229C34.039 117.006 34.2189 116.765 34.3328 116.5L33.4933 116.066C33.3254 116.349 33.1095 116.578 32.8456 116.759C32.5817 116.939 32.2519 117.03 31.8621 117.03C31.5083 117.03 31.1844 116.939 30.8846 116.765C30.5847 116.59 30.3568 116.337 30.1949 116.018C30.075 115.777 30.003 115.499 29.991 115.198H34.4408C34.4528 115.114 34.4648 115.017 34.4768 114.921C34.4888 114.825 34.4948 114.734 34.4948 114.656C34.4948 114.294 34.4348 113.945 34.3089 113.608C34.1829 113.27 34.003 112.969 33.7691 112.71L33.7631 112.698ZM30.8366 112.993C31.1185 112.818 31.4243 112.734 31.7661 112.734C32.108 112.734 32.4078 112.818 32.6717 112.993C32.9355 113.168 33.1394 113.403 33.2774 113.698C33.3673 113.885 33.4033 114.096 33.4093 114.318H30.015C30.045 114.108 30.099 113.915 30.1829 113.74C30.3388 113.421 30.5547 113.168 30.8366 112.999V112.993Z" fill="#495057"/>
<path d="M33.4273 109.155H32.066L31.2144 110.872H32.2159L33.4273 109.155Z" fill="#495057"/>
<path d="M42.6327 111.963H41.3493L38.6687 114.71V109.601H37.6672V117.813H38.6687V116.048L39.6642 115.005L41.5952 117.813H42.7826L40.3958 114.318L42.6327 111.963Z" fill="#495057"/>
<path d="M47.4543 112.119C47.1244 111.933 46.7526 111.836 46.3388 111.836C45.925 111.836 45.5292 111.939 45.2114 112.143C44.9955 112.282 44.8336 112.469 44.7016 112.686V109.601H43.7001V117.813H44.7016V114.355C44.7016 114.035 44.7616 113.764 44.8875 113.535C45.0135 113.306 45.1814 113.131 45.3973 113.005C45.6132 112.878 45.8531 112.812 46.1229 112.812C46.3928 112.812 46.6387 112.878 46.8486 113.005C47.0585 113.131 47.2204 113.306 47.3403 113.529C47.4603 113.752 47.5202 114.029 47.5202 114.355V117.813H48.5337V114.029C48.5337 113.607 48.4378 113.234 48.2459 112.903C48.054 112.571 47.7961 112.312 47.4663 112.119H47.4543Z" fill="#495057"/>
<path d="M54.2369 112.228C53.7811 111.963 53.2774 111.83 52.7137 111.83C52.1499 111.83 51.6342 111.963 51.1784 112.234C50.7227 112.499 50.3688 112.86 50.105 113.318C49.8411 113.776 49.7092 114.294 49.7092 114.879C49.7092 115.463 49.8411 115.987 50.111 116.451C50.3748 116.915 50.7347 117.277 51.1904 117.542C51.6462 117.807 52.1499 117.939 52.7137 117.939C53.2774 117.939 53.7571 117.807 54.2069 117.542C54.6567 117.277 55.0165 116.915 55.2924 116.457C55.5682 115.999 55.7002 115.475 55.7002 114.879C55.7002 114.282 55.5682 113.764 55.3044 113.306C55.0405 112.848 54.6867 112.493 54.2309 112.228H54.2369ZM54.3808 115.945C54.2129 116.264 53.979 116.512 53.6912 116.692C53.3973 116.873 53.0735 116.963 52.7137 116.963C52.3538 116.963 52.018 116.873 51.7242 116.692C51.4303 116.512 51.2024 116.264 51.0285 115.945C50.8546 115.626 50.7706 115.27 50.7706 114.885C50.7706 114.499 50.8546 114.132 51.0285 113.824C51.2024 113.517 51.4303 113.27 51.7242 113.089C52.018 112.909 52.3478 112.812 52.7137 112.812C53.0795 112.812 53.3973 112.903 53.6912 113.089C53.985 113.276 54.2129 113.517 54.3808 113.824C54.5487 114.132 54.6327 114.487 54.6327 114.885C54.6327 115.282 54.5487 115.632 54.3808 115.945Z" fill="#495057"/>
<path d="M61.6072 112.698C61.3733 112.433 61.0914 112.222 60.7556 112.071C60.4198 111.915 60.036 111.836 59.6042 111.836C59.0705 111.836 58.5907 111.969 58.1649 112.234C57.7391 112.499 57.3973 112.86 57.1514 113.312C56.9055 113.764 56.7796 114.288 56.7796 114.873C56.7796 115.457 56.9055 115.975 57.1574 116.439C57.4093 116.903 57.7571 117.271 58.1949 117.542C58.6327 117.807 59.1364 117.946 59.6941 117.946C60.0959 117.946 60.4618 117.879 60.7916 117.753C61.1214 117.62 61.4033 117.445 61.6432 117.229C61.8831 117.012 62.063 116.765 62.1769 116.5L61.3373 116.066C61.1694 116.349 60.9535 116.578 60.6896 116.759C60.4258 116.939 60.0959 117.03 59.7061 117.03C59.3523 117.03 59.0285 116.939 58.7286 116.765C58.4288 116.59 58.2009 116.337 58.039 116.018C57.919 115.777 57.8471 115.499 57.8351 115.198H62.2848C62.2968 115.114 62.3088 115.017 62.3208 114.921C62.3328 114.825 62.3388 114.734 62.3388 114.656C62.3388 114.294 62.2729 113.945 62.1469 113.608C62.021 113.27 61.8411 112.969 61.6072 112.71V112.698ZM58.6747 112.993C58.9565 112.818 59.2624 112.734 59.6042 112.734C59.946 112.734 60.2459 112.818 60.5097 112.993C60.7736 113.168 60.9775 113.403 61.1154 113.698C61.2054 113.885 61.2414 114.096 61.2474 114.318H57.8531C57.8831 114.108 57.937 113.915 58.021 113.74C58.1769 113.421 58.3928 113.168 58.6747 112.999V112.993Z" fill="#495057"/>
<path d="M59.1904 110.74L59.6342 111.306C59.934 111.173 60.1799 110.999 60.3658 110.782C60.5517 110.559 60.6476 110.318 60.6476 110.053C60.6476 109.721 60.5217 109.45 60.2758 109.245C60.03 109.041 59.7001 108.938 59.2983 108.938C59.1604 108.938 59.0225 108.95 58.8785 108.974C58.7346 108.998 58.5967 109.053 58.4587 109.131L58.5967 109.794C58.7106 109.745 58.8126 109.709 58.8965 109.697C58.9805 109.685 59.0644 109.673 59.1484 109.673C59.3223 109.673 59.4602 109.715 59.5622 109.806C59.6641 109.896 59.7181 109.999 59.7181 110.131C59.7181 110.27 59.6761 110.39 59.5922 110.487C59.5082 110.583 59.3763 110.673 59.1904 110.746V110.74Z" fill="#495057"/>
<path d="M64.03 117.813H64.5157C64.5037 118.102 64.4378 118.331 64.3238 118.494C64.2099 118.662 64.042 118.771 63.8141 118.831V119.319C64.2339 119.217 64.5457 119.006 64.7616 118.693C64.9715 118.373 65.0795 117.957 65.0795 117.433V116.511H64.03V117.813Z" fill="#495057"/>
<path d="M72.5877 113.68L69.8231 109.733H68.8516V117.813H69.913V111.673L72.5337 115.427H72.6177L75.2324 111.728V117.813H76.2998V109.733H75.3283L72.5877 113.68Z" fill="#495057"/>
<path d="M82.5548 112.698C82.3209 112.433 82.039 112.222 81.7032 112.071C81.3674 111.915 80.9835 111.836 80.5518 111.836C80.018 111.836 79.5383 111.969 79.1125 112.234C78.6867 112.499 78.3449 112.86 78.099 113.312C77.8531 113.764 77.7272 114.288 77.7272 114.873C77.7272 115.457 77.8531 115.975 78.105 116.439C78.3569 116.903 78.7047 117.271 79.1425 117.542C79.5802 117.807 80.084 117.946 80.6417 117.946C81.0435 117.946 81.4093 117.879 81.7392 117.753C82.069 117.62 82.3509 117.445 82.5907 117.229C82.8306 117.006 83.0105 116.765 83.1245 116.5L82.2849 116.066C82.117 116.349 81.9011 116.578 81.6372 116.759C81.3734 116.939 81.0435 117.03 80.6537 117.03C80.2999 117.03 79.976 116.939 79.6762 116.765C79.3763 116.59 79.1485 116.337 78.9865 116.018C78.8666 115.777 78.7946 115.499 78.7826 115.198H83.2324C83.2444 115.114 83.2564 115.017 83.2684 114.921C83.2804 114.825 83.2864 114.734 83.2864 114.656C83.2864 114.294 83.2204 113.945 83.0945 113.608C82.9685 113.27 82.7886 112.969 82.5548 112.71V112.698ZM79.6282 112.993C79.9101 112.818 80.2159 112.734 80.5578 112.734C80.8996 112.734 81.1994 112.818 81.4633 112.993C81.7272 113.168 81.9311 113.403 82.069 113.698C82.159 113.885 82.1949 114.096 82.2009 114.318H78.8066C78.8366 114.108 78.8906 113.915 78.9746 113.74C79.1305 113.421 79.3464 113.168 79.6282 112.999V112.993Z" fill="#495057"/>
<path d="M81.1154 118.789H79.9041V120.006H81.1154V118.789Z" fill="#495057"/>
<path d="M88.5517 116.385L86.9205 111.963H85.7991L88.0779 117.813H89.0255L91.3163 111.963H90.1949L88.5517 116.385Z" fill="#495057"/>
<path d="M95.904 115.427C95.904 115.746 95.8441 116.017 95.7241 116.252C95.6042 116.481 95.4423 116.662 95.2264 116.783C95.0165 116.903 94.7706 116.969 94.5007 116.969C94.2309 116.969 93.985 116.909 93.7751 116.783C93.5652 116.662 93.3973 116.487 93.2773 116.271C93.1574 116.054 93.0974 115.801 93.0974 115.511V111.963H92.0959V115.62C92.0959 116.078 92.1859 116.475 92.3718 116.831C92.5577 117.18 92.8156 117.457 93.1514 117.65C93.4872 117.843 93.8651 117.945 94.2789 117.945C94.6926 117.945 95.0765 117.843 95.4063 117.638C95.6282 117.5 95.8081 117.313 95.94 117.096V117.813H96.9235V111.969H95.91V115.427H95.904Z" fill="#495057"/>
<path d="M99.4722 109.733H98.4707V111.035H99.4722V109.733Z" fill="#495057"/>
<path d="M99.4722 111.963H98.4707V117.807H99.4722V111.963Z" fill="#495057"/>
</g>
<defs>
<clipPath id="clip0_53_216">
<rect width="121.655" height="120" fill="white"/>
</clipPath>
</defs>
</svg>
