<svg xmlns="http://www.w3.org/2000/svg" width="120" height="120" viewBox="0 0 120 120" fill="none"><path d="M94.04 0.800054C94.44 1.44005 94.96 2.08005 95.24 2.76005C95.56 3.52005 95.76 4.40005 95.84 5.20005C95.96 6.40005 96.52 7.04005 97.72 7.40005C98.56 7.64005 99.12 7.64005 99.8 7.04005C100.68 6.28005 101.64 5.64005 102.52 4.92005C103.4 4.24005 104.28 4.28005 105.12 5.00005C106.48 6.24005 107.88 7.48005 109.24 8.72005C110.08 9.48005 110.2 10.3201 109.6 11.2801C108.92 12.3601 108.24 13.4401 107.6 14.5201C106.96 15.5601 107.96 17.6001 109.16 17.8001C110.4 17.9601 111.68 18.1601 112.92 18.2801C114.08 18.4001 114.64 19.0401 114.72 20.1601C114.84 22.0401 114.96 23.9201 115 25.8001C115.04 26.8801 114.44 27.5201 113.44 27.7601C112.12 28.0801 110.8 28.3601 109.52 28.6801C108.56 28.9201 107.8 31.1201 108.4 31.8801C109.16 32.8801 109.96 33.8801 110.72 34.8801C111.56 35.9601 111.56 36.6401 110.68 37.6401C109.52 38.9601 108.32 40.2801 107.12 41.5601C106.16 42.6001 105.48 42.6401 104.28 41.9201C103.76 41.6001 103.16 41.3601 102.72 40.9201C101.12 39.4801 99.56 39.5601 97.84 40.9601C98.24 42.0001 98.64 43.1601 99.12 44.2401C99.56 45.2801 99.56 46.2001 99.08 47.2001C98.08 49.3201 97.2 51.4801 96.16 53.8001C96.72 53.8001 97.12 53.8001 97.52 53.8001C103.48 53.8001 109.44 53.8001 115.4 53.8001C117.44 53.8001 117.96 54.3201 117.96 56.3201C117.96 65.7601 117.96 75.1601 117.96 84.6001C117.96 85.6001 117.64 86.3601 116.96 87.0801C114.84 89.2801 112.72 91.5201 110.64 93.8001C109.96 94.5201 109.24 94.8801 108.24 94.8801C104.04 94.8401 99.84 94.8801 95.68 94.8801C95.4 94.8801 95.16 94.9201 94.88 95.0801C95.6 95.2001 96.28 95.3601 97 95.4801C98 95.6801 98.52 96.2801 98.52 97.3201C98.52 98.8401 98.52 100.4 98.52 101.92C98.52 103.04 97.96 103.64 96.92 103.84C96.12 104 95.32 104.12 94.52 104.28C92.84 104.6 92.36 105.76 93.36 107.2C93.84 107.88 94.32 108.6 94.8 109.28C95.36 110.08 95.24 110.88 94.56 111.6C93.44 112.72 92.36 113.84 91.2 114.96C90.48 115.64 89.68 115.68 88.88 115.16C88.16 114.72 87.48 114.2 86.8 113.72C85.32 112.68 84.16 113.2 83.84 115.04C83.72 115.84 83.56 116.64 83.4 117.44C83.2 118.4 82.6 118.92 81.6 118.92C80.04 118.96 78.44 118.96 76.88 118.92C75.88 118.88 75.24 118.36 75.04 117.32C74.88 116.52 74.72 115.72 74.6 114.96C74.28 113.2 73.08 112.72 71.6 113.76C70.92 114.24 70.28 114.68 69.6 115.12C68.8 115.68 68 115.64 67.28 114.96C66.12 113.84 64.96 112.68 63.84 111.52C63.16 110.84 63.12 110.04 63.68 109.2C64.16 108.52 64.64 107.8 65.12 107.12C66.08 105.72 65.56 104.52 63.84 104.2C63 104.04 62.16 103.88 61.36 103.72C60.4 103.52 59.88 102.88 59.88 101.96C59.84 100.4 59.84 98.8001 59.88 97.2401C59.88 96.2001 60.44 95.6001 61.44 95.4001C62.24 95.2401 63.04 95.1201 63.84 94.9601C65.6 94.6401 66.08 93.5201 65.08 92.0401C64.6 91.3601 64.16 90.7201 63.68 90.0401C63.08 89.1601 63.12 88.3201 63.88 87.5201C64.92 86.4401 66 85.4001 67.08 84.3201C67.88 83.5201 68.76 83.4801 69.68 84.1201C70.36 84.6001 71.08 84.9601 71.64 85.5201C72.48 86.3601 73.4 86.0401 74 85.4801C74.44 85.0401 74.48 84.1201 74.64 83.4001C74.68 83.2801 74.32 83.0001 74.12 82.9201C68.52 80.4801 62.92 78.0001 57.36 75.5601C57.28 75.5201 57.2 75.5601 56.96 75.5601C56.96 76.0001 56.96 76.4401 56.96 76.8801C56.96 89.8801 56.96 102.88 56.96 115.88C56.96 116.28 56.96 116.64 56.96 117.04C56.92 118.16 56.28 118.84 55.28 118.84C54.24 118.88 53.52 118.16 53.48 117C53.44 115.04 53.48 113.08 53.48 110.96C52.6 110.96 51.8 110.96 51 110.96C45.12 110.92 41 106.76 40.96 100.88C40.96 98.5601 40.92 96.2801 40.96 93.9601C40.96 93.3201 40.8 92.9601 40.16 92.6801C37.8 91.5601 36.56 89.6401 36.56 87.0001C36.56 85.4801 37.04 83.6801 36.4 82.4401C35.8 81.2401 34.08 80.6001 32.84 79.6801C20.4 70.4801 14.92 54.1201 19.28 39.3201C19.56 38.4001 19.88 37.5201 21.04 37.4801C22.32 37.4001 23.16 38.5201 22.76 39.8001C21.72 43.3201 21.16 46.9201 21.32 50.6001C21.92 63.1201 27.6 72.6401 38.32 79.0801C39.6 79.8401 40.12 80.6801 40.04 82.1201C39.96 83.7201 40 85.3601 40.04 86.9601C40.08 88.5201 41.08 89.6801 42.56 89.7201C46.12 89.7601 49.72 89.7201 53.36 89.7201C53.36 65.0801 53.36 40.5601 53.36 15.8801C50.52 15.9601 47.76 16.4801 45.08 17.3201C37.64 19.7201 31.72 24.1201 27.24 30.5201C26.16 32.0401 25.36 32.4001 24.4 31.7201C23.32 31.0001 23.32 30.0401 24.4 28.5201C31.36 18.7601 40.76 13.3201 52.76 12.3601C52.96 12.3601 53.12 12.3201 53.44 12.2801C53.44 10.6001 53.44 8.96005 53.44 7.32005C53.44 6.44005 53.4 5.56005 53.44 4.68005C53.52 3.60005 54.24 2.96005 55.24 3.00005C56.2 3.04005 56.84 3.68005 56.88 4.72005C56.92 5.32005 56.88 5.96005 56.88 6.56005C56.88 14.4001 56.88 22.2401 56.88 30.1201C56.88 30.4801 56.88 30.8401 56.88 31.2001C56.96 31.2001 57.04 31.2401 57.08 31.2401C57.24 30.9201 57.4 30.6001 57.56 30.2401C59.56 25.7201 61.56 21.1601 63.52 16.6401C64.32 14.8401 64.96 14.5601 66.76 15.3601C69.24 16.4401 71.68 17.5201 74.12 18.6001C75.16 16.9201 75.16 16.9201 74 15.4401C73.4 14.6401 72.76 13.8801 72.16 13.0801C71.4 12.0401 71.44 11.4001 72.32 10.4001C73.52 9.04005 74.76 7.72005 75.96 6.40005C76.72 5.56005 77.6 5.44005 78.52 6.04005C79.6 6.68005 80.68 7.36005 81.76 8.04005C82.84 8.72005 84.92 7.72005 85.08 6.48005C85.28 5.28005 85.36 4.04005 85.56 2.84005C85.76 1.52005 86.28 1.08005 87.6 0.960054C88.72 0.880054 89.8 0.800054 90.92 0.680054C92.04 0.800054 93.04 0.800054 94.04 0.800054ZM77.24 80.5601C77.24 79.8801 77.24 79.4801 77.24 79.0401C77.24 74.3201 77.28 69.6001 77.24 64.8401C77.24 63.4801 77.56 62.3601 78.6 61.3201C80.64 59.3201 82.56 57.2401 84.44 55.1201C85.24 54.2401 86.04 53.8001 87.24 53.8801C88.64 53.9601 90.08 53.9201 91.52 53.8801C91.88 53.8801 92.36 53.6401 92.52 53.4001C93.52 51.2001 94.48 49.0001 95.48 46.7201C95.08 46.5201 94.72 46.3601 94.4 46.2001C91.32 44.8401 88.2 43.4801 85.12 42.0801C83.68 41.4401 83.36 40.6401 84 39.2401C84.4 38.2801 84.84 37.3601 85.28 36.4001C86.36 33.9201 87.48 31.4401 88.6 28.8801C81.12 25.6401 73.76 22.4001 66.44 19.2001C66.28 19.4401 66.2 19.5601 66.16 19.7201C63.16 26.5201 60.16 33.3601 57.2 40.2001C57.04 40.6001 56.96 41.0801 56.96 41.5201C56.96 51.2401 56.96 60.9601 56.92 70.7201C56.92 71.4401 57.16 71.8001 57.8 72.0801C61.6 73.7201 65.4 75.4001 69.2 77.0401C71.8 78.1601 74.4 79.3201 77.24 80.5601ZM93.88 91.4401C94.36 91.4401 94.72 91.4401 95.04 91.4401C98.64 91.4401 102.28 91.4001 105.88 91.4401C106.96 91.4401 107.16 91.1201 107.12 90.1201C107.04 87.7201 107.08 85.3601 107.12 82.9601C107.12 81.7601 107.76 81.0801 108.84 81.0801C109.88 81.0801 110.52 81.7601 110.6 82.9601C110.64 83.7601 110.6 84.5601 110.6 85.4001C110.6 86.4001 110.6 87.4001 110.6 88.7201C111.8 87.4401 112.8 86.4801 113.68 85.4401C114.08 84.9601 114.4 84.2401 114.4 83.6401C114.44 76.2401 114.44 68.8801 114.44 61.4801C114.44 61.1201 114.4 60.7601 114.36 60.2401C113.84 60.7601 113.44 61.2001 113 61.5601C111 63.0801 110.32 65.0801 110.6 67.6001C110.8 69.5601 110.68 71.6001 110.64 73.6001C110.6 74.7201 109.96 75.3601 108.92 75.3601C107.84 75.3601 107.24 74.8001 107.16 73.6801C107.12 72.8001 107.16 71.9201 107.16 71.0401C107.16 69.1201 107.16 67.2401 107.16 65.3201C98.32 65.3201 89.6 65.3201 80.92 65.3201C80.92 70.4001 80.92 75.3601 80.92 80.3201C82.88 80.6001 83.16 80.8401 83.48 82.7601C83.6 83.3201 83.68 83.8801 83.8 84.4401C84.12 86.1201 85.32 86.6001 86.76 85.6001C87.44 85.1601 88.08 84.6801 88.76 84.2401C89.6 83.6801 90.44 83.7201 91.16 84.4401C91.84 85.1201 92.52 85.8001 93.2 86.4801C95.36 88.6401 95.36 88.6401 93.88 91.4401ZM103.68 8.48005C102.48 9.40005 101.4 10.2001 100.32 11.0801C99.64 11.6001 99 11.7201 98.16 11.4001C96.96 10.9201 95.68 10.6001 94.52 10.0401C93.96 9.76005 93.48 9.24005 93.16 8.68005C92.88 8.20005 92.84 7.60005 92.72 7.04005C92.12 4.36005 92.12 4.36005 89.4 4.56005C89.28 4.56005 89.2 4.60005 89 4.68005C88.84 5.96005 88.64 7.24005 88.52 8.52005C88.4 9.60005 87.92 10.2401 86.84 10.6001C85.84 10.9601 84.84 11.4401 83.92 11.9601C82.96 12.5201 82.16 12.5201 81.24 11.9201C80.12 11.2001 78.96 10.5201 77.8 9.80005C77.08 10.6001 76.4 11.3601 75.76 12.0801C76.6 13.1601 77.32 14.1601 78.12 15.0801C78.92 16.0001 79.08 16.9201 78.44 18.0401C78.04 18.7201 77.84 19.4801 77.56 20.2801C79 20.9201 80.28 21.4801 81.56 22.0001C83.76 16.4001 87.32 13.8001 92.24 14.1201C96.64 14.4001 100.36 17.5601 101.36 21.8401C102.48 26.6401 100.48 30.4001 94.96 33.7201C95.44 34.9601 95.96 36.2401 96.52 37.6801C97.48 37.2001 98.4 36.8001 99.24 36.2801C100.12 35.7601 100.88 35.7601 101.72 36.3201C102.88 37.0801 104.04 37.7601 105.24 38.5201C105.96 37.7201 106.64 36.9601 107.28 36.2401C106.4 35.0801 105.6 34.0001 104.72 32.9601C104.08 32.1601 104.08 31.4001 104.48 30.5201C104.92 29.5201 105.32 28.4401 105.6 27.4001C105.88 26.4001 106.44 25.8401 107.48 25.6001C108.56 25.4001 109.68 25.1601 110.72 24.8401C111 24.7601 111.36 24.4001 111.36 24.1201C111.44 23.3201 111.4 22.5201 111.4 21.6401C109.96 21.4401 108.68 21.2401 107.36 21.1201C106.24 21.0401 105.56 20.4801 105.16 19.4001C104.8 18.4001 104.32 17.4401 103.76 16.5201C103.2 15.6001 103.24 14.8401 103.8 13.9601C104.56 12.8401 105.24 11.7201 105.96 10.5201C105.2 9.84005 104.48 9.20005 103.68 8.48005ZM94.92 100.76C94.92 100 94.92 99.4001 94.92 98.7601C92.72 98.2801 90.72 98.2401 89.52 95.4001C88.36 92.5601 89.8 91.1201 91 89.2801C90.48 88.7601 90 88.3201 89.52 87.8801C87.64 89.2801 86.2 90.4801 83.44 89.3601C80.6 88.2001 80.56 86.2001 80.12 84.0001C79.4 84.0001 78.76 84.0001 78.12 84.0001C77.72 86.2001 77.96 88.8001 74.8 89.1601C72.28 91.1201 70.6 89.1601 68.68 87.8001C68.24 88.2801 67.8 88.7201 67.36 89.2401C67.8 89.8801 68.16 90.5601 68.68 91.1201C69.64 92.2401 69.88 93.3601 68.96 94.6801C68.64 95.1201 68.48 95.6401 68.36 96.1601C68.08 97.5601 67.24 98.2001 65.88 98.2801C65.44 98.3201 64.96 98.4401 64.52 98.5201C63.88 98.6001 63.36 98.6401 63.36 99.5601C63.4 100.4 63.52 100.88 64.48 100.88C64.88 100.88 65.32 101.04 65.72 101.08C67.2 101.2 68.12 101.88 68.44 103.4C68.6 104.08 69.16 104.72 69.28 105.4C69.4 106.08 69.44 106.92 69.16 107.52C68.76 108.44 68.04 109.24 67.44 110.08C67.92 110.6 68.36 111.04 68.84 111.52C69.72 110.92 70.56 110.36 71.36 109.76C72.08 109.24 72.8 109.2 73.64 109.6C74.48 110 75.32 110.36 76.2 110.68C77.08 110.96 77.64 111.52 77.76 112.44C77.92 113.44 78.16 114.44 78.36 115.44C79.08 115.44 79.68 115.44 80.36 115.44C80.76 113.2 80.56 110.56 83.76 110.24C86.28 108.24 87.96 110.44 89.72 111.52C90.28 111.04 90.72 110.68 91.24 110.24C89.96 108.32 87.92 106.68 89.84 104.2C90.08 100.96 92.68 101.12 94.92 100.76ZM44.44 93.4001C44.44 95.8801 44.52 98.3201 44.44 100.72C44.28 105.08 47.6 108.52 53.4 107.36C53.4 102.72 53.4 98.0801 53.4 93.4001C50.44 93.4001 47.52 93.4001 44.44 93.4001ZM112.08 57.4801C111.72 57.4001 111.68 57.3601 111.6 57.3601C103.68 57.3601 95.76 57.3601 87.88 57.3601C87.64 57.3601 87.28 57.3601 87.12 57.5201C85.84 58.8001 84.64 60.1201 83.32 61.5201C83.64 61.6001 83.72 61.6401 83.8 61.6401C91.72 61.6401 99.64 61.6401 107.52 61.6401C107.84 61.6401 108.24 61.5601 108.44 61.3601C109.6 60.1201 110.76 58.8801 112.08 57.4801ZM93.64 30.2801C96.92 29.1201 98.64 26.0001 97.96 22.6801C97.36 19.7601 94.72 17.6401 91.64 17.6001C88.52 17.5601 85.76 19.6401 85.04 22.5201C84.88 23.2401 85.04 23.6401 85.76 23.9201C87 24.4001 88.2 25.0801 89.44 25.4801C91.44 26.1201 92.76 27.2801 93.2 29.3601C93.32 29.6801 93.52 30.0001 93.64 30.2801ZM94.64 42.4801C93.28 39.0401 92.08 35.8801 90.76 32.5201C89.68 34.9601 88.72 37.1601 87.72 39.4001C90 40.4401 92.16 41.4001 94.64 42.4801Z" fill="#455589"></path><path d="M25.04 78.9601C25.48 79.3201 26.2 79.6001 26.4 80.1201C26.64 80.6001 26.6 81.5601 26.28 81.8801C24.28 84.0401 22.16 86.1201 20.04 88.1601C19.32 88.8401 18.44 88.6401 17.8 87.9201C17.16 87.2401 17.04 86.4001 17.68 85.7601C19.72 83.6401 21.84 81.5601 23.96 79.4801C24.16 79.2801 24.56 79.2001 25.04 78.9601Z" fill="#455589"></path><path d="M7.67999 51.8401C6.31999 51.8401 4.99999 51.8401 3.64 51.8401C2.48 51.8001 1.88 51.2401 1.84 50.2001C1.8 49.1201 2.44 48.4001 3.6 48.4001C6.31999 48.3601 9.03999 48.3601 11.76 48.4001C12.92 48.4001 13.6 49.1201 13.56 50.2001C13.52 51.2401 12.88 51.8801 11.64 51.8801C10.36 51.8401 9.03999 51.8401 7.67999 51.8401Z" fill="#455589"></path><path d="M26.32 19.2401C25.92 19.7201 25.6 20.4401 25.12 20.6401C24.64 20.8401 23.72 20.7601 23.36 20.4001C21.24 18.4401 19.24 16.4001 17.24 14.3201C16.52 13.6001 16.6 12.6801 17.36 11.9601C18.08 11.3201 18.88 11.1601 19.64 11.8401C21.72 13.8401 23.72 15.8801 25.76 17.9601C26 18.2401 26.08 18.7201 26.32 19.2401Z" fill="#455589"></path><path d="M44.44 93.4C47.52 93.4 50.44 93.4 53.4 93.4C53.4 98.08 53.4 102.72 53.4 107.36C47.6 108.52 44.28 105.08 44.44 100.72C44.52 98.32 44.44 95.92 44.44 93.4Z" fill="white"></path><path d="M87.12 99.64C87.12 104 83.68 107.48 79.32 107.56C74.96 107.6 71.32 104 71.32 99.6C71.32 95.24 74.84 91.76 79.16 91.76C83.52 91.76 87.12 95.28 87.12 99.64ZM74.84 99.6C74.84 102.12 76.8 104.08 79.28 104.08C81.72 104.08 83.68 102.12 83.68 99.68C83.68 97.28 81.68 95.28 79.28 95.24C76.8 95.2 74.84 97.12 74.84 99.6Z" fill="#455589"></path></svg>