<svg xmlns="http://www.w3.org/2000/svg" id="Layer_1" data-name="Layer 1" viewBox="0 0 70 70"><defs><style>      .cls-1 {        fill: #000;        stroke-width: 0px;      }    </style></defs><path class="cls-1" d="M34.9,56.9c-5.8,0-11.6,0-17.4,0-.4,0-.8-.1-1.1-.4-.9-1-1.9-1.9-2.9-2.9-.2-.2-.4-.6-.4-.9,0-11.7,0-23.5,0-35.2,0-.3.2-.7.4-.9,1-1,2-2,3-3,.2-.2.6-.4.9-.4,11.4,0,22.8,0,34.2,0,.3,0,.6.1.8.3,1.4,1.4,2.8,2.8,4.2,4.2.2.2.3.5.3.8,0,11.4,0,22.7,0,34.1,0,.3-.2.7-.4.9-.9,1-1.9,2-2.9,3-.3.3-.6.5-1.1.5-5.9,0-11.7,0-17.6,0ZM52.5,50.3c0-1.2-1-2.2-2.2-2.2-1.2,0-2.2,1-2.2,2.2,0,1.2,1,2.2,2.2,2.2,1.2,0,2.2-1,2.2-2.2Z"></path><path class="cls-1" d="M4.4,10.6c2.2,2.2,4.3,4.3,6.3,6.3.2.2.2.6.2.9,0,11.7,0,23.4,0,35.1,0,.8.2,1.4.8,2,1.2,1.2,2.4,2.4,3.6,3.6.4.4.8.6,1.4.6,12.2,0,24.3,0,36.5,0,.6,0,1-.2,1.4-.6,1.3-1.4,2.6-2.7,3.9-4.1.3-.3.5-.9.5-1.3,0-11.8,0-23.5,0-35.3,0-.6-.2-1-.6-1.4-1.6-1.6-3.3-3.2-4.9-4.9-.5-.5-.9-.6-1.6-.6-11.4,0-22.8,0-34.2,0-.5,0-.9-.1-1.2-.5-1.8-1.8-3.6-3.6-5.5-5.5-.2-.2-.3-.3-.5-.6h.8c17,0,34,0,50.9,0,.5,0,.8.1,1.1.5.7.8,1.7,1.4,2.1,2.2.4.9.1,2.1.1,3.1,0,17.4,0,34.8,0,52.2,0,.6-.1.9-.6,1.3-.8.6-1.4,1.6-2.3,1.9-.9.3-2,0-3,0-17.3,0-34.7,0-52,0-.5,0-.9-.1-1.3-.5-.7-.7-1.6-1.3-2-2.2-.4-.8,0-1.9,0-2.9,0-16.2,0-32.3,0-48.5,0-.3,0-.5,0-1Z"></path><path class="cls-1" d="M14.9,11.8c-1.1,1.1-2.1,2-3.1,3.1,0,0-.2-.2-.4-.3-2.2-2.2-4.5-4.5-6.7-6.7-.5-.4-.5-.8,0-1.2.7-.6,1.4-1.3,2-2,.3-.3.6-.3.9,0,2.4,2.4,4.8,4.8,7.2,7.2Z"></path></svg>