<svg xmlns="http://www.w3.org/2000/svg" width="75" height="75" viewBox="0 0 75 75" fill="none"><path d="M52.875 0.5C53.4 0.625 53.95 0.725 54.475 0.875C63.3 3.075 67.175 13.55 61.75 20.9C58.5 25.3 55.025 29.525 51.625 33.85C51.575 33.9 51.525 33.95 51.425 34C51.35 33.925 51.25 33.85 51.175 33.75C47.875 29.525 44.5 25.35 41.25 21.1C36.35 14.65 38.65 5.175 45.925 1.775C47.225 1.175 48.7 0.9 50.1 0.5C51.025 0.5 51.95 0.5 52.875 0.5ZM51.4 4.325C46.5 4.35 42.5 8.375 42.5 13.25C42.525 18.175 46.55 22.175 51.5 22.15C56.375 22.125 60.375 18.1 60.35 13.175C60.325 8.3 56.3 4.3 51.4 4.325Z" fill="#1B264A"></path><path d="M0.5 66.7C2.2 66.7 3.9 66.7 5.625 66.7C5.625 67.55 5.625 68.35 5.625 69.3C3.925 69.3 2.2 69.3 0.5 69.3C0.5 68.45 0.5 67.575 0.5 66.7Z" fill="#1B264A"></path><path d="M36.1 38.75C36.1 47.225 36.1 55.65 36.1 64.125C35.825 64.15 35.6 64.175 35.375 64.175C31.35 64.175 27.3 64.175 23.275 64.2C22.75 64.2 22.475 64.05 22.225 63.575C18.8 57.625 10.275 57.625 6.84999 63.575C6.54999 64.075 6.24999 64.225 5.72499 64.2C4.89999 64.175 4.04999 64.2 3.14999 64.2C3.14999 55.7 3.14999 47.275 3.14999 38.775C6.49999 38.775 9.82499 38.775 13.225 38.775C13.225 41.95 13.225 45.1 13.225 48.4C13.55 48.25 13.8 48.175 14 48.05C15.7 47.2 17.4 46.375 19.075 45.5C19.5 45.275 19.8 45.3 20.2 45.5C21.875 46.35 23.55 47.175 25.225 48.025C25.425 48.125 25.65 48.225 25.975 48.375C25.975 45.125 25.975 41.975 25.975 38.775C29.375 38.75 32.7 38.75 36.1 38.75Z" fill="#1B264A"></path><path d="M54.25 56.525C54.9 59.075 55.5 61.575 56.15 64.175C55.175 64.175 54.275 64.2 53.375 64.15C53.175 64.125 52.95 63.825 52.8 63.6C50.925 60.55 48.225 59.025 44.65 59.1C42.4 59.15 40.475 60.075 38.75 61.675C38.75 56.525 38.75 51.5 38.75 46.35C39 46.35 39.25 46.35 39.5 46.35C43.025 46.35 46.575 46.35 50.1 46.35C51.5 46.35 51.75 46.55 52.075 47.9C52.15 48.2 52.2 48.5 52.275 48.9C51.7 48.9 51.2 48.9 50.7 48.9C49.25 48.9 47.825 48.875 46.375 48.9C44.8 48.925 43.775 49.975 43.75 51.55C43.725 52.325 43.75 53.1 43.75 53.85C43.775 55.45 44.8 56.5 46.425 56.5C48.725 56.525 51.05 56.5 53.35 56.5C53.65 56.525 53.925 56.525 54.25 56.525Z" fill="#1B264A"></path><path d="M17.1 25.15C16.375 24.2 15.75 23.35 15.125 22.525C14.05 21.075 12.925 19.675 11.9 18.2C10.425 16.075 10.275 13.8 11.475 11.525C12.675 9.25 14.675 8.125 17.25 8.15C21.875 8.225 25 13.325 22.675 17.375C21.1 20.1 19 22.525 17.1 25.15ZM19.575 14.55C19.6 13.125 18.45 11.975 17.05 11.975C15.65 11.975 14.525 13.1 14.5 14.475C14.475 15.875 15.65 17.05 17.05 17.05C18.425 17.05 19.575 15.925 19.575 14.55Z" fill="#1B264A"></path><path d="M68 58.275C66.175 55.825 64.4 53.55 62.725 51.2C60.9 48.625 61.325 45.15 63.625 43C65.875 40.9 69.3 40.7 71.775 42.525C74.3 44.4 75.225 47.9 73.575 50.55C71.925 53.2 69.925 55.625 68 58.275ZM68 45.075C66.575 45.075 65.425 46.25 65.45 47.65C65.475 49.025 66.6 50.15 68 50.15C69.425 50.15 70.575 49.025 70.55 47.6C70.5 46.175 69.4 45.075 68 45.075Z" fill="#1B264A"></path><path d="M45.05 61.65C48.575 61.65 51.425 64.475 51.425 68C51.425 71.525 48.55 74.375 45.05 74.35C41.575 74.35 38.725 71.5 38.725 68.025C38.7 64.475 41.525 61.65 45.05 61.65ZM45.05 70.525C46.475 70.55 47.625 69.375 47.625 67.975C47.625 66.6 46.475 65.45 45.1 65.425C43.7 65.4 42.525 66.6 42.525 68C42.525 69.375 43.65 70.5 45.05 70.525Z" fill="#1B264A"></path><path d="M20.85 68.025C20.85 71.55 17.975 74.375 14.45 74.375C10.95 74.35 8.10001 71.475 8.12501 67.95C8.15001 64.475 11 61.65 14.5 61.65C18.05 61.65 20.875 64.475 20.85 68.025ZM14.525 70.525C15.925 70.525 17.05 69.4 17.075 68C17.1 66.6 15.9 65.425 14.5 65.425C13.1 65.425 11.95 66.625 11.975 68.025C12 69.425 13.125 70.525 14.525 70.525Z" fill="#1B264A"></path><path d="M64.725 21.075C67.95 26.575 69.45 32.4 69.225 38.725C68.35 38.725 67.55 38.725 66.6 38.725C66.6 37.45 66.675 36.175 66.575 34.925C66.3 31.075 65.225 27.425 63.425 24C63.15 23.5 63.175 23.175 63.55 22.75C63.975 22.275 64.3 21.7 64.725 21.075Z" fill="#1B264A"></path><path d="M8.17499 36.1C7.32499 36.1 6.52499 36.1 5.64999 36.1C5.87499 30.5 7.47499 25.4 10.45 20.55C11 21.275 11.5 21.9 11.95 22.575C12.025 22.7 11.95 22.975 11.85 23.15C9.94999 26.55 8.79999 30.175 8.34999 34.05C8.27499 34.725 8.22499 35.375 8.17499 36.1Z" fill="#1B264A"></path><path d="M15.8 44.275C15.8 42.35 15.8 40.6 15.8 38.775C18.325 38.775 20.825 38.775 23.375 38.775C23.375 40.575 23.375 42.375 23.375 44.275C22.3 43.75 21.275 43.275 20.275 42.725C19.8 42.475 19.425 42.45 18.95 42.7C17.95 43.225 16.925 43.725 15.8 44.275Z" fill="#1B264A"></path><path d="M25.225 10.8C24.75 10.05 24.325 9.4 23.85 8.65C28.35 6.525 33.1 5.55 38.15 5.6C37.8 6.425 37.475 7.175 37.125 7.9C37.075 8.025 36.875 8.125 36.75 8.15C32.75 8.275 28.9 9.125 25.225 10.8Z" fill="#1B264A"></path><path d="M23.375 69.225C23.375 68.4 23.375 67.6 23.375 66.775C27.625 66.775 31.9 66.775 36.175 66.775C36.175 67.6 36.175 68.4 36.175 69.225C31.925 69.225 27.65 69.225 23.375 69.225Z" fill="#1B264A"></path><path d="M53 51.475C53.2 52.25 53.4 53.075 53.625 53.975C52.35 53.975 51.175 53.975 49.975 53.975C48.8 53.975 47.625 53.975 46.4 53.975C46.4 53.125 46.4 52.325 46.4 51.475C48.575 51.475 50.75 51.475 53 51.475Z" fill="#1B264A"></path><path d="M58.175 61.525C58.1 61.375 58.075 61.325 58.075 61.3C57.875 60.5 57.4 59.65 57.575 58.95C57.75 58.25 58.575 57.725 59.1 57.125C59.95 56.125 60.775 55.1 61.65 54.025C62.1 54.625 62.575 55.225 63 55.85C63.075 55.975 63.1 56.225 63.025 56.35C61.625 58.225 60.025 59.95 58.175 61.525Z" fill="#1B264A"></path><path d="M28.55 31.1C29.375 31.1 30.175 31.1 31.025 31.1C31.025 31.925 31.025 32.7 31.025 33.55C30.2 33.55 29.4 33.55 28.55 33.55C28.55 32.75 28.55 31.95 28.55 31.1Z" fill="#1B264A"></path><path d="M56.45 69.25C55.575 69.25 54.775 69.25 53.925 69.25C53.925 68.425 53.925 67.625 53.925 66.775C54.725 66.775 55.55 66.775 56.45 66.775C56.45 67.55 56.45 68.35 56.45 69.25Z" fill="#1B264A"></path><path d="M33.65 33.575C33.65 32.75 33.65 31.975 33.65 31.125C34.45 31.125 35.25 31.125 36.1 31.125C36.1 31.925 36.1 32.725 36.1 33.575C35.3 33.575 34.5 33.575 33.65 33.575Z" fill="#1B264A"></path><path d="M38.75 31.1C39.575 31.1 40.35 31.1 41.2 31.1C41.2 31.925 41.2 32.7 41.2 33.55C40.375 33.55 39.575 33.55 38.75 33.55C38.75 32.75 38.75 31.975 38.75 31.1Z" fill="#1B264A"></path></svg>