<svg xmlns="http://www.w3.org/2000/svg" id="Layer_1" data-name="Layer 1" viewBox="0 0 300 300"><defs><style>      .cls-1 {        fill: #fefefe;        stroke-width: 0px;      }    </style></defs><path class="cls-1" d="M268.8,156.2c-.9,6.5-1.8,12.8-2.7,19-3.4,23.2-6.7,46.4-10.1,69.6-.5,3.6-1,7.2-1.6,10.8-1.9,10.8-10.4,17.9-21.5,17.9-35.8,0-71.6,0-107.4,0-19.2,0-38.5-.3-57.7.1-10.7.2-21.2-6.8-23-19.7-4.5-31.9-9.2-63.7-13.8-95.6,0-.6,0-1.3,0-2.2h237.9ZM71,214.6c0,10.9,0,21.7,0,32.6,0,5.3,2,8.2,5.9,8.3,4,0,6.2-2.9,6.2-8.3,0-21.6,0-43.2,0-64.8,0-1.1,0-2.3-.2-3.4-.6-2.9-3-4.8-6-4.7-3.6,0-5.8,2.6-5.8,6.8,0,11.2,0,22.5,0,33.7ZM227.8,214.9c0-11.4,0-22.9,0-34.3,0-3.9-2.4-6.4-5.9-6.4-3.5,0-5.9,2.4-6.1,6.2,0,.6,0,1.2,0,1.7,0,21.8,0,43.6,0,65.4,0,1.1,0,2.3.3,3.4.8,3.3,4.2,5.2,7.3,4.3,2.9-.9,4.4-3,4.4-6.6,0-11.2,0-22.5,0-33.7ZM155.4,214.6c0-11.3,0-22.7,0-34,0-3.8-2.5-6.4-5.9-6.5-3.5,0-6.1,2.5-6.1,6.2,0,23,0,45.9,0,68.9,0,2.6,1.2,4.6,3.7,5.7,4.2,1.9,8.4-1.2,8.4-6.3,0-11.3,0-22.7,0-34ZM191.7,214.9c0-10,0-20,0-30,0-2.1,0-4.3-.3-6.3-.5-2.9-3.1-4.7-6.1-4.5-2.9.2-5.2,2.3-5.5,5.3,0,.9,0,1.7,0,2.6,0,21.8,0,43.6,0,65.4,0,.7,0,1.3,0,2,.2,3.4,2.6,5.9,5.8,6,3,0,5.6-2.1,6.1-5.4.1-.9.1-1.9.1-2.9,0-10.8,0-21.5,0-32.3ZM119.2,214.7c0-1.4,0-2.9,0-4.3,0-9.9,0-19.8,0-29.7,0-4.3-3-7.1-6.9-6.5-3.1.5-5.1,3-5.1,7,0,12,0,24,0,36,0,10.3,0,20.6,0,30.8,0,2.6.5,5,2.9,6.5,2,1.2,4,1.3,6,.2,2.2-1.2,3.2-3.2,3.1-5.7,0-11.4,0-22.9,0-34.3Z"></path><path class="cls-1" d="M100.4,125.6c0,.9.1,1.3,0,1.8-2,6.9,1.9,14.8,10.4,16.6,8.4,1.8,14.5-3.7,15.9-10.7.5-2.4,1.2-4.8,1.9-7.4h42.6c-.3,2.3-1.1,4.7-.9,7,.6,8.6,8.4,14,17.2,12,22.8-5.3,45.6-10.8,68.4-16,5.8-1.3,11.6-2.4,17.5-3.2,4.8-.6,8.8,3,9.2,7.9.2,2.7.2,5.4,0,8.1-.3,4.2-3.5,7.3-7.6,7.8-1.1.1-2.3.1-3.5.1-81,0-162,0-243,0-1.1,0-2.1,0-3.2-.1-4.4-.5-7.7-3.7-7.9-8.1-.1-2.5-.1-5,0-7.5.2-4.7,3.6-8,8.3-8.3,1,0,1.9,0,2.9,0,22.8,0,45.6,0,68.4,0h3.4Z"></path><path class="cls-1" d="M140.6,119.6c-.8-7.9,1.4-15,5.4-21.7,3.6-6,7.2-12.1,10-18.5,4.1-9.1,5.6-18.9,5.5-29,0-2.3.5-3.2,3-3.1,7.1.2,14.2,0,21.3,0,.8,0,1.7,0,2.5.1.4,4.9.6,9.6,1.2,14.2,1.3,10.5,4.9,20.3,10.4,29.4,3.6,6,7.9,11.6,9.2,19.4,1.3-1.8,2.1-3.1,3.2-4.7,1.9,1.1,3.8,2.1,6.3,3.6-2.6.7-4.6,1.2-6.5,1.7-11.4,2.9-22.9,5.8-34.4,8.5-2,.5-4.2.2-6.3.2-4.2,0-8.4,0-12.9,0-.1-4.4.9-8.2,2.7-11.8.4-.8.8-1.5,1.2-2.3.9-1.7,1.1-3.4-.7-4.5-1.9-1.1-3.7-.5-4.5,1.5-1.7,4.7-3.1,9.4-4.6,14.1-.2.8-.1,1.7-.2,2.8h-11.8Z"></path><path class="cls-1" d="M222.4,87.8c3.9,2.3,7.5,4.5,11.2,6.6,3.1,1.8,5.4,1.3,6.9-1.2,1.5-2.5.7-4.9-2.3-6.7-3.5-2.1-7.1-4.2-10.6-6.3,8.9-22.8,30.3-27.9,46-18.5,6.7,4,10.6,10.8,5.5,19.3-3.1,5.1-6,10.3-9.1,15.3-.7,1-2,2-3.2,2.3-11.3,2.8-22.6,5.4-33.9,8.1-1.7.4-2.8.2-4.3-1-2.9-2.2-6.2-3.8-9.3-5.7-.9-.5-1.8-1.1-2.8-1.8,2-3.5,3.9-6.8,6-10.5Z"></path><path class="cls-1" d="M96.7,75.9c-1.1,0-2-.2-2.8-.2-13.7,0-27.3,0-41,0-2.1,0-3,.6-3.5,2.7-2.6,10.6-5.4,21.2-7.9,31.9-.7,2.9-.4,6.1-.6,9.4h-6c.2-3.6,0-7.4.7-10.9,2.3-10.2,5-20.3,7.4-30.5.3-1.2-.3-2.7-.4-4,0-4.1-.3-8.2,0-12.3,0-.7,2.4-1.7,3.7-1.7,7.2-.2,14.4,0,21.6,0,10.7,0,21.4,0,32,0,3.8,0,4.9.8,4.5,4.5-1,9.3,1.5,18,3.6,26.8.4,1.5.4,3.3,0,4.8-1.8,7.1-3.8,14.1-5.5,21.2-.5,1.9-1.3,2.6-3.3,2.5-3.7-.2-7.5,0-11.9,0,.4-4,.4-7.8,1.2-11.3,2.3-10,4.9-19.9,7.4-29.9.2-.8.3-1.6.5-2.7Z"></path><path class="cls-1" d="M144.3,43.6c-.5,2-1,4.4-1.7,6.7-7.3,27-14.5,54-21.8,80.9-1.5,5.5-5.3,8.2-9.7,6.9-4.6-1.3-6.5-5.3-5.1-10.6,5.6-21,11.3-41.9,16.9-62.9,2.1-7.7,4.1-15.4,6.2-23.1,1.1-3.9,4.3-6.2,7.8-6,3.6.2,6.6,3,7.2,6.4,0,.4.1.8.2,1.5Z"></path><path class="cls-1" d="M279.2,111.1c0,3.9-2.4,6.7-6.8,7.7-13.3,3.2-26.7,6.3-40.1,9.5-15.3,3.6-30.6,7.2-46,10.8-4.8,1.1-9-1.1-10-5.3-1-4.3,1.7-8.2,6.7-9.4,28.7-6.8,57.3-13.6,86-20.4,5.5-1.3,10.2,2,10.2,7Z"></path><path class="cls-1" d="M175.2,41.4c-4.1,0-8.3,0-12.4,0-3.2,0-4-.8-4-3.9,0-2.6,0-5.2,0-7.8,0-2.2,1-3.4,3.3-3.4,8.8,0,17.7,0,26.5,0,2.3,0,3.3,1.1,3.3,3.4,0,2.7,0,5.4,0,8.1,0,2.6-1.3,3.6-3.7,3.6-4.3,0-8.6,0-13,0Z"></path><path class="cls-1" d="M64.6,119.8c-2.2,0-4.5.3-6.6-.1-1.2-.2-2.7-1.2-3.2-2.3-1.5-3.3,0-8.5,2.8-11.1,3-2.8,7.8-3.5,11.6-1.7,3.7,1.8,5.9,5.5,5.6,9.6-.2,4.4-1.6,5.7-5.9,5.7-1.4,0-2.9,0-4.3,0Z"></path></svg>