<svg xmlns="http://www.w3.org/2000/svg" width="60" height="60" viewBox="0 0 60 60" fill="none"><path d="M47.7007 39.3008C46.2257 30.4758 37.7507 23.3008 28.8007 23.3008C19.0757 23.3008 10.5257 31.1758 9.70069 40.8758C9.37569 44.6258 10.5757 48.1758 13.0507 50.8508C15.5007 53.5258 18.9507 55.0008 22.7007 55.0008H34.4007C38.6257 55.0008 42.3257 53.3508 44.8507 50.3758C47.3757 47.4008 48.3757 43.4508 47.7007 39.3008Z" fill="#FEFEFE"></path><path d="M25.699 19.65C29.7445 19.65 33.024 16.3705 33.024 12.325C33.024 8.27952 29.7445 5 25.699 5C21.6535 5 18.374 8.27952 18.374 12.325C18.374 16.3705 21.6535 19.65 25.699 19.65Z" fill="#FEFEFE"></path><path d="M42.35 22.5711C45.719 22.5711 48.45 19.84 48.45 16.4711C48.45 13.1021 45.719 10.3711 42.35 10.3711C38.981 10.3711 36.25 13.1021 36.25 16.4711C36.25 19.84 38.981 22.5711 42.35 22.5711Z" fill="#FEFEFE"></path><path d="M51.374 32.3282C54.0665 32.3282 56.249 30.1455 56.249 27.453C56.249 24.7607 54.0665 22.5781 51.374 22.5781C48.6817 22.5781 46.499 24.7607 46.499 27.453C46.499 30.1455 48.6817 32.3282 51.374 32.3282Z" fill="#FEFEFE"></path><path d="M9.85 27.454C13.2189 27.454 15.95 24.7229 15.95 21.3539C15.95 17.985 13.2189 15.2539 9.85 15.2539C6.48108 15.2539 3.75 17.985 3.75 21.3539C3.75 24.7229 6.48108 27.454 9.85 27.454Z" fill="#FEFEFE"></path></svg>