<svg xmlns="http://www.w3.org/2000/svg" width="55" height="55" viewBox="0 0 55 55" fill="none"><g clip-path="url(#clip0_58_160)"><path d="M6.87502 20.6249C6.87502 16.8849 7.79169 13.4383 9.62502 10.2849C11.4584 7.13161 13.97 4.63827 17.16 2.80494C20.35 0.971606 23.7967 0.0366058 27.5 -6.0897e-05C31.2034 -0.0367276 34.65 0.898273 37.84 2.80494C41.03 4.71161 43.5417 7.20494 45.375 10.2849C47.2084 13.3649 48.125 16.8116 48.125 20.6249C48.125 22.2016 47.74 24.0349 46.97 26.1249C46.2 28.2149 45.2284 30.3233 44.055 32.4499C42.8817 34.5766 41.5434 36.7399 40.04 38.9399C38.5367 41.1399 37.07 43.1933 35.64 45.0999C34.21 47.0066 32.8717 48.6933 31.625 50.1599C30.3784 51.6266 29.3884 52.8183 28.655 53.7349L27.5 54.9999C27.2067 54.7066 26.8217 54.2666 26.345 53.6799C25.8684 53.0933 24.8967 51.9383 23.43 50.2149C21.9634 48.4916 20.6067 46.7683 19.36 45.0449C18.1134 43.3216 16.665 41.3049 15.015 38.9949C13.365 36.6849 12.0084 34.4849 10.945 32.3949C9.88169 30.3049 8.91002 28.2333 8.03002 26.1799C7.15002 24.1266 6.76502 22.2749 6.87502 20.6249ZM13.75 20.6249C13.75 24.4383 15.0884 27.6833 17.765 30.3599C20.4417 33.0366 23.6867 34.3749 27.5 34.3749C31.3134 34.3749 34.5584 33.0366 37.235 30.3599C39.9117 27.6833 41.25 24.4383 41.25 20.6249C41.25 16.8116 39.9117 13.5849 37.235 10.9449C34.5584 8.30494 31.3134 6.94827 27.5 6.87494C23.6867 6.80161 20.4417 8.15827 17.765 10.9449C15.0884 13.7316 13.75 16.9583 13.75 20.6249Z" fill="#FEFEFE"></path></g><defs><clipPath id="clip0_58_160"><rect width="55" height="55" fill="white"></rect></clipPath></defs></svg>