<svg xmlns="http://www.w3.org/2000/svg" width="116" height="106" viewBox="0 0 116 106" fill="none"><circle cx="96" cy="20" r="20" fill="#1B264A"></circle><path d="M91.572 26.284L97.402 20.19C97.8127 19.75 98.1427 19.3613 98.392 19.024C98.656 18.672 98.8467 18.342 98.964 18.034C99.0813 17.7113 99.14 17.3887 99.14 17.066C99.14 16.4207 98.9273 15.9147 98.502 15.548C98.0913 15.1813 97.556 14.998 96.896 14.998C96.2213 14.998 95.62 15.174 95.092 15.526C94.5787 15.878 94.0947 16.4353 93.64 17.198L91.594 15.46C92.21 14.4187 92.9727 13.634 93.882 13.106C94.806 12.5633 95.862 12.292 97.05 12.292C98.062 12.292 98.942 12.49 99.69 12.886C100.453 13.282 101.039 13.832 101.45 14.536C101.861 15.24 102.066 16.0613 102.066 17C102.066 17.6307 101.985 18.2027 101.824 18.716C101.677 19.2293 101.421 19.7427 101.054 20.256C100.702 20.7547 100.211 21.3193 99.58 21.95L95.334 26.284H91.572ZM91.572 28V26.284L94.124 25.404H102.396V28H91.572Z" fill="white"></path><g clip-path="url(#clip0_127_3)"><path d="M90 44.3711L74.3906 28.9727H49.9219V44.3711H90Z" fill="#1B264A"></path><path d="M41.4844 28.9727H16.9102L1.40625 44.3711H41.4844V28.9727Z" fill="#1B264A"></path><path d="M49.9219 49.0117V64.6211H41.4844V49.0117H1.40625V108.496H90V49.0117H49.9219ZM61.9102 79.3164L67.7461 85.1523H65.2148V95.1016H58.5703V85.1523H56.0391L61.9102 79.3164ZM83.9531 102.449H56.0742V97.9141H83.9531V102.449ZM81.457 85.1523V95.1016H74.8125V85.1523H72.2812L78.1172 79.3164L83.9531 85.1523H81.457Z" fill="#1B264A"></path></g><defs><clipPath id="clip0_127_3"><rect width="90" height="90" fill="white" transform="translate(0 16)"></rect></clipPath></defs></svg>