<svg xmlns="http://www.w3.org/2000/svg" width="111" height="101" viewBox="0 0 111 101" fill="none"><circle cx="91" cy="20" r="20" fill="#1B264A"></circle><path d="M91.478 28.22C90.4367 28.22 89.4833 28.0367 88.618 27.67C87.7527 27.2887 87.0267 26.746 86.44 26.042L88.42 24.084C88.7133 24.524 89.1313 24.876 89.674 25.14C90.2167 25.404 90.8033 25.536 91.434 25.536C92.0207 25.536 92.5267 25.4333 92.952 25.228C93.3773 25.008 93.7073 24.7073 93.942 24.326C94.1913 23.93 94.316 23.4753 94.316 22.962C94.316 22.4193 94.1913 21.9573 93.942 21.576C93.7073 21.1947 93.3627 20.9013 92.908 20.696C92.4533 20.4907 91.9107 20.388 91.28 20.388C91.0013 20.388 90.7153 20.41 90.422 20.454C90.1287 20.4833 89.8793 20.5347 89.674 20.608L90.994 18.936C91.3607 18.8187 91.72 18.7233 92.072 18.65C92.4387 18.562 92.776 18.518 93.084 18.518C93.876 18.518 94.5873 18.7087 95.218 19.09C95.8633 19.4567 96.3693 19.9847 96.736 20.674C97.1173 21.3487 97.308 22.148 97.308 23.072C97.308 24.0987 97.066 25.0007 96.582 25.778C96.098 26.5407 95.416 27.142 94.536 27.582C93.6707 28.0073 92.6513 28.22 91.478 28.22ZM89.674 20.608V18.892L93.634 14.294L97.066 14.25L92.974 18.936L89.674 20.608ZM87.298 15.13V12.534H97.066V14.25L94.624 15.13H87.298Z" fill="white"></path><path d="M108.284 67.0567C108.284 67.0389 108.283 67.021 108.283 66.9942C108.253 65.6522 107.163 64.5829 105.79 64.5829H105.135L95.0264 45.2551C94.6 44.4385 93.7494 43.9307 92.8103 43.9305L75.5521 43.9269L76.2105 38.7656C76.3983 36.7029 75.7535 34.7554 74.3944 33.2814C73.0379 31.8103 71.144 31 69.0611 31H15.4974C14.1507 31 13.0066 32.0306 12.8782 33.3592L12.3413 37.6116H42.8593C44.8409 37.6116 46.4052 39.2003 46.3535 41.16C46.3014 43.1197 44.653 44.7083 42.6714 44.7083H32.492C32.4938 44.7134 32.4956 44.7172 32.4974 44.7261H2.60475C1.20338 44.7261 0.0375332 45.8494 0.00088487 47.2353C-0.0357607 48.6212 1.07036 49.7445 2.47173 49.7445H42.0463C43.8834 50.0247 45.2558 51.5955 45.2053 53.4976C45.15 55.5867 43.4013 57.2805 41.2926 57.2979H14.0089C12.5935 57.2979 11.4161 58.4326 11.3789 59.8325C11.3418 61.2323 12.4592 62.367 13.8746 62.367H40.8369C42.7009 62.624 44.1007 64.2076 44.05 66.1283C43.9944 68.2279 42.228 69.9301 40.105 69.9301H9.17309L6.57409 69.9328C5.15863 69.9328 3.98125 71.0676 3.94409 72.4675C3.90691 73.8672 5.02408 75.002 6.4398 75.002H8.68281L7.80555 84.0802C7.61744 86.1426 8.26225 88.0901 9.62159 89.5641C10.9778 91.0354 12.8721 91.8455 14.9549 91.8455H16.8898C17.812 97.06 22.3738 101 27.9539 101C33.534 101 38.3045 97.06 39.5022 91.8458H63.6491C65.6015 91.8458 67.4499 91.1077 68.8994 89.8987C70.2249 91.1568 71.982 91.8458 73.9006 91.8458H74.2978C75.2197 97.06 79.7815 101 85.3619 101C90.942 101 95.7125 97.06 96.9101 91.8458H98.504C102.656 91.8458 106.338 88.5075 106.713 84.4043L108.274 67.2947C108.276 67.2679 108.275 67.2501 108.277 67.2233C108.279 67.1876 108.284 67.1519 108.285 67.118C108.286 67.1002 108.284 67.0746 108.284 67.0567ZM28.0883 95.9304C24.5554 95.9304 21.7562 93.0882 21.8487 89.5943C21.9413 86.1002 24.8908 83.2577 28.4237 83.2577C31.9566 83.2577 34.7555 86.1002 34.663 89.5943C34.5705 93.0882 31.6212 95.9304 28.0883 95.9304ZM85.4962 95.9304C81.9633 95.9304 79.1644 93.0882 79.2567 89.5943C79.3492 86.1002 82.2988 83.2577 85.8317 83.2577C89.3646 83.2577 92.1637 86.1002 92.071 89.5943C91.9785 93.0882 89.0291 95.9304 85.4962 95.9304ZM101.606 84.0797C101.473 85.5413 100.114 86.7762 98.6385 86.7762H96.9145C95.773 81.8457 91.3418 78.1886 85.9657 78.1886C80.5896 78.1886 75.965 81.8457 74.5626 86.7762H74.0349C73.3834 86.7762 72.8021 86.5343 72.3975 86.0953C71.9902 85.6535 71.7985 85.0528 71.8577 84.4032L75.0892 48.998L82.511 48.9995L81.3347 61.8881C81.1463 63.9505 81.7908 65.898 83.1499 67.3721C84.5062 68.8437 86.4009 69.6542 88.484 69.6542H102.923L101.606 84.0797Z" fill="#1B264A"></path></svg>