<svg xmlns="http://www.w3.org/2000/svg" width="122" height="120" viewBox="0 0 122 120" fill="none"><g clip-path="url(#clip0_127_5)"><path d="M18.3203 42.3828C17.4023 42.5977 17.9883 42.5586 17.2266 42.6562C13.9648 43.3594 16.3867 43.9844 18.3203 42.3828ZM75.6836 43.6914C75.918 43.5352 76.7383 42.7344 74.1797 41.9531C74.3359 42.7539 73.6523 42.6758 73.6523 43.125C75.5469 44.8438 76.3281 47.832 78.75 48.457C79.2188 46.3086 76.6016 45.2539 75.6836 43.6914ZM16.582 41.7578C16.875 43.4961 18.1836 39.9219 18.2031 38.6523C17.6953 38.9453 17.1875 39.2383 16.6602 39.4727C17.8906 40.0977 16.8164 40.7617 15.4883 41.7578C12.793 45.1172 18.0078 39.1406 16.582 41.7578ZM50 20C22.3828 20 0 42.3828 0 70C0 97.5977 22.3828 120 50 120C77.6172 120 100 97.5977 100 70C100 42.3828 77.6172 20 50 20ZM51.3281 36.7578L51.5625 36.8359C50.625 38.0469 56.4453 41.582 52.2656 41.875C48.3594 42.9883 53.9062 40.8594 50.8789 41.2305C52.4805 39.0039 49.6094 38.9648 51.3281 36.7578ZM27.6172 39.9609C26.2109 38.7891 21.7969 41.5625 23.3398 40.8984C27.168 39.3945 23.5938 41.0547 24.4922 42.8516C23.6719 44.5508 24.2188 41.1719 22.1875 43.1836C20.7227 43.5156 17.1289 46.8359 17.5781 45.8203C17.4609 47.4023 13.3008 49.2773 12.7344 51.9141C11.3672 55.5664 12.4023 51.7773 12.1484 50.3516C10.1953 47.8711 6.64063 54.5508 7.69531 57.1875C9.47266 54.0625 9.33594 56.8555 8.04688 58.2422C9.35547 60.6445 6.85547 63.7695 9.33594 65.5469C10.4297 65.8008 12.6172 61.875 11.6602 65.957C12.3242 62.4219 13.4961 66.7969 15.3906 65.8203C15.5078 67.6758 16.6602 66.8164 16.9141 69.0625C20.0781 68.8281 22.9688 74.1797 19.1992 75.1953C19.7656 75.0391 20.8789 76.0352 22.168 75.2734C24.3555 77.0117 30.1172 77.2266 30.2734 81.5234C26.3086 83.418 29.2969 88.6133 25.8594 90.4688C21.9141 89.8828 24.5117 95.332 22.8516 94.707C23.5156 98.6328 18.8672 94.1992 20.6641 96.3672C23.9648 98.3984 19.2188 97.9883 20.7031 99.4727C19.043 99.1211 21.7383 102.559 22.1875 103.828C24.5703 107.695 20.1367 102.969 18.8281 101.68C17.5781 99.1797 14.6289 94.3945 13.8086 90.4688C13.3398 84.7656 8.92578 80.9375 7.91016 75.3711C6.89453 72.2656 10.7031 67.2852 8.65234 65.5469C6.875 64.1602 7.59766 59.4141 6.54297 56.9141C9.17969 45.4883 17.5586 35.8594 27.6172 30.1562C26.582 30.918 33.5352 28.1836 32.7344 28.8477C32.5195 29.3359 36.7969 26.9922 39.375 26.6406C39.1016 26.6797 32.6758 28.9844 34.4531 28.6719C31.6992 30.0195 34.1797 29.2578 35.5469 28.5742C32.8125 30.5859 30.7031 30.0195 27.5977 31.7969C24.4727 32.6172 25.1172 35.8594 22.8906 37.4805C24.1992 37.7148 27.4805 34.1016 29.3945 32.832C33.7891 30.7031 27.168 36.6992 31.3477 34.1211C29.9414 35.4297 30.2344 37.5195 29.375 38.1055C28.9453 37.9883 31.0742 39.1211 27.6172 39.9609ZM34.4531 30.9766C34.0039 31.582 33.3789 32.8906 33.0078 32.0898C32.5 32.3438 32.3047 33.4375 31.3477 32.5586C31.9141 32.1484 32.5 31.1719 31.3867 31.7773C31.8945 31.2305 36.4258 29.6875 36.1719 29.1016C36.9727 28.5938 36.8945 28.3398 35.9766 28.6523C35.5078 28.4961 37.0898 27.168 39.1992 26.9922C39.4922 26.9922 39.6094 27.1875 39.082 27.1289C35.8984 28.1055 37.2656 27.832 39.4141 27.1289C38.5938 27.5977 38.0273 27.7344 37.8906 27.9492C40.0391 27.168 37.7734 28.5156 38.2617 28.418C37.6562 28.7305 38.3594 28.8281 37.1875 29.2773C37.4023 29.1016 35.2734 30.5469 36.543 30.1172C35.3125 31.2891 34.7656 31.3086 34.4531 30.9766ZM36.3281 33.7695C36.3672 31.8945 39.0625 30.7031 38.7305 30.6055C42.0508 29.043 37.5781 30.6641 40.1953 29.2578C41.1719 29.1602 43.2422 26.0352 46.1133 25.8398C49.2773 24.8828 47.8125 25.8984 50.1562 25L49.6875 25.3906C49.2773 25.4492 49.7852 26.1719 48.3008 27.2656C48.1445 28.9648 45.4688 28.1836 46.7969 30C45.9375 28.7695 44.6484 29.9609 46.2695 30.0781C44.5312 31.4062 40.4883 31.6406 38.5547 33.8477C37.3047 35.6445 36.1523 35.0781 36.3281 33.7695ZM50.2148 40.0195C48.8867 43.2227 47.5977 39.5508 49.9414 38.9648C50.5273 39.2773 50.7617 39.375 50.2148 40.0195ZM45.2148 33.6133C44.8242 32.168 45.1367 32.9297 47.4609 32.2461C49.0625 33.3984 46.0352 34.1602 45.2148 33.6133ZM81.582 90.9375C79.7461 87.7734 83.8086 84.8438 85.1758 82.1875C85 85.293 84.6094 88.3594 81.582 90.9375ZM88.4961 54.7852C86.5039 54.9414 84.707 55.4102 82.9102 54.2773C78.7695 49.7461 83.6719 59.3945 85.0391 55.4492C89.9609 57.3242 84.9609 65.4102 81.8555 64.5703C80.1172 60.8203 77.9688 56.6992 74.1797 54.8633C77.0898 58.0859 78.5352 62.0508 81.6602 64.9609C81.875 69.0234 85.9961 63.4766 85.7422 66.6211C86.1328 72.0312 79.6289 75.2734 80.7617 80.7031C83.1836 85.6445 76.0938 86.543 76.8945 90.9766C74.043 94.1602 70.9961 98.457 65.8789 97.7734C65.8789 95.0781 64.5117 92.793 64.1992 90.0195C61.4258 86.5039 67.1289 82.7344 63.5938 79.0625C59.5117 78.1445 64.4336 72.5195 60.2344 73.0469C57.7148 70.5273 54.0234 72.9687 50.4102 72.9883C45.8789 73.418 41.2109 67.4219 43.2227 63.1836C41.6211 58.7695 48.3008 57.4805 48.4766 53.5938C51.6797 50.918 56.2305 51.25 60.5664 50.625C60.2539 53.7305 63.5352 53.75 66.0156 54.7852C67.4023 51.4258 71.7188 55.332 74.668 53.2031C75.6836 48.2422 71.7969 51.2305 69.5703 49.6484C66.875 45.7031 75.332 47.6172 74.4531 45.5469C71.1719 45.5273 73.0273 41.5039 70.7031 43.75C72.793 44.1211 70.332 45.7617 70.3906 43.8867C67.2266 42.9688 70.2734 47.4805 68.6719 47.9102C66.2305 46.8945 67.3828 49.0625 67.6367 49.3945C66.582 51.6797 65.293 46.0352 62.3047 46.1914C59.3359 43.4766 61.1328 47.4219 63.7109 48.0664C63.1641 48.2227 64.0234 50.4688 63.3398 49.5117C61.2109 46.582 57.168 44.6289 54.7656 48.2227C54.5117 51.582 47.6758 52.5391 48.7695 48.6133C47.168 44.5508 53.7305 48.4961 53.125 45.2539C48.9062 42.4609 54.2773 43.3594 55.7031 40.7422C58.9453 40.8398 55.8398 38.0859 57.3633 37.2852C57.207 40.2734 59.8438 39.707 61.9336 39.1406C61.4258 37.4219 63.1836 37.4805 62.1094 36.0547C66.9531 34.1211 58.418 36.9531 60.1367 32.7148C58.0469 31.2695 59.2578 35.8984 60.1367 36.3867C60.1953 37.8125 58.9844 39.5703 57.3242 36.582C54.9023 38.1641 55.1562 34.9805 55 35.3125C54.7266 34.082 56.8359 34.0234 56.8555 31.875C56.6797 30.5078 56.7188 29.7852 57.6953 29.707C57.7734 29.9023 61.6992 29.9609 63.0859 31.582C59.2969 30.8203 62.5195 32.207 64.2188 32.9883C62.4023 31.5625 64.9414 32.9883 63.457 31.3672C64.043 31.4844 61.8359 29.1406 64.1016 31.1914C62.8711 29.7266 66.5039 30.1562 64.3555 29.0625C67.5 29.9414 65.6445 29.1406 63.7891 28.3398C58.6719 25.293 72.832 32.4609 67.0508 29.2773C70.7422 30.0781 59.1602 26.4258 64.4336 28.0273C62.4219 27.1484 64.375 27.6367 66.1914 28.2031C62.9297 27.1875 58.0469 25.293 58.2422 25.2148C59.375 25.293 60.4883 25.5469 61.5625 25.8594C64.9023 26.8555 60.6055 25.625 61.5234 25.6445C73.0078 28.5938 83.0664 36.2891 89.1797 46.3477C90.6055 47.8516 94.4922 57.793 92.4609 53.3789C93.3789 56.8945 93.5156 60.6836 94.0039 64.2773C92.9883 63.1445 91.8555 58.9648 90.8789 56.6406C90.4688 57.5391 90 55.3711 88.4961 54.7852Z" fill="#1B264A"></path></g><circle cx="102" cy="20" r="20" fill="#1B264A"></circle><path d="M100.542 28V12.534H103.49V28H100.542ZM97.506 15.13V12.534H103.27V15.13H97.506Z" fill="white"></path><defs><clipPath id="clip0_127_5"><rect width="100" height="100" fill="white" transform="translate(0 20)"></rect></clipPath></defs></svg>